HIERARCHY
ROOT Hips
{
	OFFSET 0.000000 0.000000 0.000000
	CHANNELS 6 Xposition Yposition Zposition Zrotation Yrotation Xrotation 
	JOINT LHipJoint
	{
		OFFSET 0.000000 0.000000 0.000000
		CHANNELS 3 Zrotation Yrotation Xrotation
		JOINT LeftUpLeg
		{
			OFFSET 1.363060 -1.794630 0.839290
			CHANNELS 3 Zrotation Yrotation Xrotation
			JOINT LeftLeg
			{
				OFFSET 2.448110 -6.726130 0.000000
				CHANNELS 3 Zrotation Yrotation Xrotation
				JOINT LeftFoot
				{
					OFFSET 2.562200 -7.039590 0.000000
					CHANNELS 3 Zrotation Yrotation Xrotation
					JOINT LeftToeBase
					{
						OFFSET 0.157640 -0.433110 2.322550
						CHANNELS 3 Zrotation Yrotation Xrotation
						End Site
						{
							OFFSET 0.000000 0.000000 0.000000
						}
					}
				}
			}
		}
	}
	JOINT RHipJoint
	{
		OFFSET 0.000000 0.000000 0.000000
		CHANNELS 3 Zrotation Yrotation Xrotation
		JOINT RightUpLeg
		{
			OFFSET -1.305520 -1.794630 0.839290
			CHANNELS 3 Zrotation Yrotation Xrotation
			JOINT RightLeg
			{
				OFFSET -2.542530 -6.985550 0.000000
				CHANNELS 3 Zrotation Yrotation Xrotation
				JOINT RightFoot
				{
					OFFSET -2.568260 -7.056230 0.000000
					CHANNELS 3 Zrotation Yrotation Xrotation
					JOINT RightToeBase
					{
						OFFSET -0.164730 -0.452590 2.363150
						CHANNELS 3 Zrotation Yrotation Xrotation
						End Site
						{
							OFFSET 0.000000 0.000000 0.000000
						}
					}
				}
			}
		}
	}
	JOINT LowerBack
	{
		OFFSET 0.000000 0.000000 0.000000
		CHANNELS 3 Zrotation Yrotation Xrotation
		JOINT Spine
		{
			OFFSET 0.028270 2.035590 -0.193380
			CHANNELS 3 Zrotation Yrotation Xrotation
			JOINT Spine1
			{
				OFFSET 0.056720 2.048850 -0.042750
				CHANNELS 3 Zrotation Yrotation Xrotation
				JOINT Neck
				{
					OFFSET 0.000000 0.000000 0.000000
					CHANNELS 3 Zrotation Yrotation Xrotation
					JOINT Neck1
					{
						OFFSET -0.054170 1.746240 0.172020
						CHANNELS 3 Zrotation Yrotation Xrotation
						JOINT Head
						{
							OFFSET 0.104070 1.761360 -0.123970
							CHANNELS 3 Zrotation Yrotation Xrotation
							End Site
							{
								OFFSET 0.000000 0.000000 0.000000
							}
						}
					}
				}
				JOINT LeftShoulder
				{
					OFFSET 0.000000 0.000000 0.000000
					CHANNELS 3 Zrotation Yrotation Xrotation
					JOINT LeftArm
					{
						OFFSET 3.362410 1.200890 -0.311210
						CHANNELS 3 Zrotation Yrotation Xrotation
						JOINT LeftForeArm
						{
							OFFSET 4.983000 -0.000000 -0.000000
							CHANNELS 3 Zrotation Yrotation Xrotation
							JOINT LeftHand
							{
								OFFSET 3.483560 -0.000000 -0.000000
								CHANNELS 3 Zrotation Yrotation Xrotation
								JOINT LeftFingerBase
								{
									OFFSET 0.000000 0.000000 0.000000
									CHANNELS 3 Zrotation Yrotation Xrotation
									JOINT LeftHandIndex1
									{
										OFFSET 0.715260 -0.000000 -0.000000
										CHANNELS 3 Zrotation Yrotation Xrotation
										End Site
										{
											OFFSET 0.000000 0.000000 0.000000
										}
									}
								}
								JOINT LThumb
								{
									OFFSET 0.000000 0.000000 0.000000
									CHANNELS 3 Zrotation Yrotation Xrotation
									End Site
									{
										OFFSET 0.000000 0.000000 0.000000
									}
								}
							}
						}
					}
				}
				JOINT RightShoulder
				{
					OFFSET 0.000000 0.000000 0.000000
					CHANNELS 3 Zrotation Yrotation Xrotation
					JOINT RightArm
					{
						OFFSET -3.136600 1.374050 -0.404650
						CHANNELS 3 Zrotation Yrotation Xrotation
						JOINT RightForeArm
						{
							OFFSET -5.241900 -0.000000 -0.000000
							CHANNELS 3 Zrotation Yrotation Xrotation
							JOINT RightHand
							{
								OFFSET -3.444170 -0.000000 -0.000000
								CHANNELS 3 Zrotation Yrotation Xrotation
								JOINT RightFingerBase
								{
									OFFSET 0.000000 0.000000 0.000000
									CHANNELS 3 Zrotation Yrotation Xrotation
									JOINT RightHandIndex1
									{
										OFFSET -0.622530 -0.000000 -0.000000
										CHANNELS 3 Zrotation Yrotation Xrotation
										End Site
										{
											OFFSET 0.000000 0.000000 0.000000
										}
									}
								}
								JOINT RThumb
								{
									OFFSET 0.000000 0.000000 0.000000
									CHANNELS 3 Zrotation Yrotation Xrotation
									End Site
									{
										OFFSET 0.000000 0.000000 0.000000
									}
								}
							}
						}
					}
				}
			}
		}
	}
}
MOTION
Frames: 11
Frame Time: 0.016667
-1.902374 17.162235 23.987098 -0.510470 2.638589 18.267780 -10.204222 -0.801259 10.662948 25.915967 -42.285622 -34.735231 53.608169 -54.593295 -25.158341 -35.456142 -45.149593 44.869746 0.000000 0.000000 0.000000 15.614077 -4.349477 -3.823059 6.607449 6.856024 -13.720869 -10.882806 -16.986992 52.991337 25.503065 -53.045954 20.269557 0.000000 0.000000 0.000000 -2.236722 3.316789 10.183066 1.784825 2.525900 -1.989521 -5.215785 3.823570 -27.175805 3.820298 -0.377258 4.836120 4.852681 0.196847 0.844180 0.000000 0.000000 0.000000 6.342151 15.042042 3.105709 -73.560844 -38.049966 2.732178 26.472070 -81.756875 -15.001685 -60.059780 34.234254 -10.852189 -68.104490 26.361351 0.000000 0.000000 0.000000 0.000000 0.000000 0.000000 0.000000 -13.828598 -25.940083 -16.831862 90.287377 18.585466 31.640778 54.087774 -66.462986 0.792579 -1.228415 1.256915 0.402153 -1.282298 1.242873 -0.000000 0.000000 0.000000 0.000000 0.000000 0.000000 0.000000 
-1.916596 17.188794 24.174564 -0.165678 2.565936 18.298755 -9.838589 -0.867407 10.470135 25.159875 -43.508798 -34.082088 53.352778 -55.229189 -23.779345 -32.196829 -47.231317 40.708806 0.000000 0.000000 0.000000 15.749255 -4.296644 -3.561254 6.009804 6.404800 -13.430222 -10.474892 -16.716332 52.342479 25.605934 -54.044157 20.835676 0.000000 0.000000 0.000000 -2.521301 3.345832 10.175224 1.800540 2.446397 -1.991016 -5.218340 3.737925 -27.181251 3.832223 -0.380402 4.799910 4.843969 0.197961 0.827886 0.000000 0.000000 0.000000 6.316702 14.990050 3.122243 -73.577229 -38.032982 2.742743 26.440154 -81.788715 -15.014591 -60.046009 34.290928 -10.865489 -68.115147 26.399919 0.000000 0.000000 0.000000 0.000000 0.000000 0.000000 0.000000 -13.856952 -25.962671 -16.817023 90.294258 18.542344 31.675381 54.087045 -66.492427 0.792173 -1.229832 1.252356 0.401943 -1.283658 1.238325 -0.000000 0.000000 0.000000 0.000000 0.000000 0.000000 0.000000 
-1.928201 17.216642 24.358321 0.192399 2.520526 18.317647 -9.472065 -0.849666 10.224425 24.237824 -44.696353 -33.411054 52.820726 -55.773190 -22.383544 -29.298775 -48.812992 37.050092 0.000000 0.000000 0.000000 15.875370 -4.284553 -3.271756 5.412510 5.980428 -13.171514 -10.053126 -16.416717 51.702113 25.650606 -54.984092 21.407201 0.000000 0.000000 0.000000 -2.799699 3.358359 10.180138 1.819038 2.354934 -1.991347 -5.226610 3.639780 -27.193182 3.841889 -0.383778 4.759055 4.832845 0.199195 0.808409 0.000000 0.000000 0.000000 6.291113 14.937380 3.135123 -73.584482 -38.019434 2.755938 26.420610 -81.804101 -15.022897 -60.032957 34.328008 -10.872858 -68.117054 26.427009 0.000000 0.000000 0.000000 0.000000 0.000000 0.000000 0.000000 -13.894410 -25.996059 -16.800796 90.294250 18.515147 31.669214 54.098814 -66.504370 0.791611 -1.230316 1.251110 0.401656 -1.284078 1.237104 -0.000000 0.000000 0.000000 0.000000 0.000000 0.000000 0.000000 
-1.936814 17.245338 24.537744 0.558453 2.497444 18.328673 -9.100346 -0.764775 9.939070 23.194881 -45.859352 -32.735241 52.061942 -56.264937 -20.956840 -26.731603 -50.011114 33.824425 0.000000 0.000000 0.000000 15.990887 -4.304381 -2.960160 4.823795 5.589820 -12.942773 -9.624162 -16.088279 51.078483 25.636247 -55.860340 21.993728 0.000000 0.000000 0.000000 -3.079426 3.361707 10.196534 1.836338 2.258496 -1.992460 -5.229285 3.538047 -27.194879 3.850382 -0.386242 4.731462 4.824036 0.199977 0.796020 0.000000 0.000000 0.000000 6.262959 14.879289 3.149351 -73.600292 -38.011386 2.768803 26.393701 -81.829526 -15.032667 -60.020703 34.373783 -10.883045 -68.124189 26.458528 0.000000 0.000000 0.000000 0.000000 0.000000 0.000000 0.000000 -13.923819 -26.026334 -16.789092 90.302450 18.473424 31.704893 54.104884 -66.538314 0.790981 -1.231972 1.246293 0.401332 -1.285652 1.232307 -0.000000 0.000000 0.000000 0.000000 0.000000 0.000000 0.000000 
-1.941833 17.274456 24.712797 0.930419 2.493291 18.334110 -8.721728 -0.622748 9.624162 22.058467 -47.005044 -32.061574 51.112375 -56.730445 -19.495472 -24.454739 -50.917550 30.973266 0.000000 0.000000 0.000000 16.093577 -4.348808 -2.629514 4.247923 5.238228 -12.740121 -9.192000 -15.730774 50.476511 25.565737 -56.671407 22.602834 0.000000 0.000000 0.000000 -3.360181 3.356932 10.222275 1.852260 2.158331 -1.994441 -5.226108 3.434058 -27.186061 3.857765 -0.387766 4.717793 4.817767 0.200294 0.791007 0.000000 0.000000 0.000000 6.232405 14.816366 3.164944 -73.625003 -38.008918 2.781297 26.359207 -81.865277 -15.043979 -60.009248 34.428513 -10.896185 -68.136741 26.494566 0.000000 0.000000 0.000000 0.000000 0.000000 0.000000 0.000000 -13.944554 -26.052955 -16.782170 90.319038 18.417426 31.783280 54.104944 -66.594934 0.790287 -1.234825 1.237845 0.400972 -1.288404 1.223873 -0.000000 0.000000 0.000000 0.000000 0.000000 0.000000 0.000000 
-1.943748 17.303641 24.882954 1.309199 2.503901 18.337473 -8.341754 -0.431389 9.288277 20.853453 -48.129756 -31.399485 49.993888 -57.187255 -17.992498 -22.435842 -51.595915 28.456083 0.000000 0.000000 0.000000 16.182950 -4.406821 -2.275939 3.673424 4.921881 -12.559104 -8.740872 -15.355878 49.881633 25.440347 -57.398012 23.232217 0.000000 0.000000 0.000000 -3.630315 3.336413 10.249178 1.871798 2.048091 -1.994011 -5.231841 3.318624 -27.189882 3.861733 -0.389894 4.693909 4.808018 0.200946 0.779203 0.000000 0.000000 0.000000 6.204651 14.756182 3.173010 -73.632865 -38.009896 2.795743 26.348244 -81.871061 -15.047358 -59.999908 34.446856 -10.898844 -68.134095 26.508960 0.000000 0.000000 0.000000 0.000000 0.000000 0.000000 0.000000 -13.979750 -26.093040 -16.772101 90.323262 18.392295 31.786207 54.125123 -66.620287 0.789336 -1.235941 1.235558 0.400485 -1.289412 1.221621 -0.000000 0.000000 0.000000 0.000000 0.000000 0.000000 0.000000 
-1.942891 17.332621 25.048364 1.693291 2.528183 18.340789 -7.962100 -0.196282 8.938311 19.595812 -49.230281 -30.754189 48.719170 -57.646424 -16.441655 -20.634857 -52.100037 26.227807 0.000000 0.000000 0.000000 16.258752 -4.473273 -1.901104 3.104504 4.644118 -12.396523 -8.273103 -14.963116 49.295452 25.268484 -58.045200 23.886643 0.000000 0.000000 0.000000 -3.888493 3.300146 10.275031 1.895077 1.927953 -1.991091 -5.247000 3.191756 -27.207214 3.862068 -0.392672 4.659117 4.794606 0.201949 0.760179 0.000000 0.000000 0.000000 6.180046 14.699340 3.173006 -73.622877 -38.014338 2.812299 26.362358 -81.844998 -15.042283 -59.992905 34.426356 -10.890332 -68.115295 26.500242 0.000000 0.000000 0.000000 0.000000 0.000000 0.000000 0.000000 -14.030189 -26.147143 -16.758566 90.314123 18.399964 31.708785 54.166695 -66.612035 0.788115 -1.235201 1.239837 0.399865 -1.288553 1.225957 -0.000000 0.000000 0.000000 0.000000 0.000000 0.000000 0.000000 
-1.939933 17.361201 25.209194 2.075993 2.567605 18.341858 -7.583076 0.073541 8.584275 18.297015 -50.297075 -30.123402 47.301225 -58.108902 -14.838171 -19.017831 -52.470170 24.250849 0.000000 0.000000 0.000000 16.321816 -4.547793 -1.516373 2.568796 4.420706 -12.248482 -7.811096 -14.533095 48.747017 25.072909 -58.643987 24.572127 0.000000 0.000000 0.000000 -4.144970 3.260297 10.303433 1.916752 1.807979 -1.987282 -5.253620 3.066191 -27.218359 3.868580 -0.396034 4.616365 4.782000 0.203112 0.739750 0.000000 0.000000 0.000000 6.151432 14.632282 3.183810 -73.627414 -38.008570 2.822510 26.351831 -81.849184 -15.047019 -59.981640 34.447674 -10.893914 -68.112166 26.516838 0.000000 0.000000 0.000000 0.000000 0.000000 0.000000 0.000000 -14.073745 -26.188990 -16.742161 90.315483 18.380131 31.690823 54.187840 -66.634281 0.787087 -1.235782 1.238955 0.399341 -1.289026 1.225112 -0.000000 0.000000 0.000000 0.000000 0.000000 0.000000 0.000000 
-1.935244 17.389296 25.365667 2.456451 2.623925 18.341964 -7.207617 0.372542 8.231726 16.968921 -51.323587 -29.511338 45.743555 -58.575008 -13.178479 -17.560473 -52.737852 22.500257 0.000000 0.000000 0.000000 16.373337 -4.622805 -1.122791 2.069360 4.255635 -12.110268 -7.355286 -14.062245 48.238220 24.863144 -59.197439 25.295512 0.000000 0.000000 0.000000 -4.399115 3.217105 10.333365 1.936686 1.688198 -1.982673 -5.251019 2.942027 -27.222863 3.881779 -0.400013 4.564971 4.770263 0.204450 0.717756 0.000000 0.000000 0.000000 6.118492 14.554117 3.206423 -73.647837 -37.991657 2.825873 26.314467 -81.886208 -15.062406 -59.965648 34.514429 -10.910640 -68.126002 26.560924 0.000000 0.000000 0.000000 0.000000 0.000000 0.000000 0.000000 -14.109854 -26.217636 -16.722752 90.328258 18.330393 31.737305 54.186961 -66.689679 0.786270 -1.237789 1.232504 0.398917 -1.290937 1.218667 0.000000 0.000000 0.000000 0.000000 0.000000 0.000000 0.000000 
-1.929385 17.416869 25.518319 2.838168 2.699931 18.343880 -6.837932 0.700852 7.881209 15.617406 -52.309192 -28.924541 44.035106 -59.046890 -11.449324 -16.237799 -52.930958 20.950531 0.000000 0.000000 0.000000 16.413692 -4.690163 -0.715432 1.598260 4.146369 -11.977531 -6.895179 -13.554166 47.756589 24.644190 -59.700106 26.062327 0.000000 0.000000 0.000000 -4.644941 3.165345 10.362997 1.956916 1.562930 -1.977002 -5.247858 2.813350 -27.222851 3.894213 -0.403956 4.507026 4.757419 0.205850 0.694704 0.000000 0.000000 0.000000 6.085053 14.472189 3.250964 -73.677476 -37.952778 2.808510 26.241104 -81.968276 -15.094643 -59.944901 34.649176 -10.947305 -68.167794 26.646167 -0.000000 0.000000 0.000000 0.000000 0.000000 0.000000 0.000000 -14.146557 -26.251501 -16.707085 90.341013 18.281607 31.782782 54.188902 -66.747111 0.785367 -1.239796 1.226025 0.398450 -1.292836 1.212204 -0.000000 0.000000 0.000000 0.000000 0.000000 0.000000 0.000000 
-1.922569 17.443927 25.667388 3.220847 2.798047 18.348923 -6.476856 1.054514 7.536493 14.252553 -53.247999 -28.368067 42.172181 -59.518022 -9.646500 -15.035178 -53.071086 19.589213 0.000000 0.000000 0.000000 16.444114 -4.742900 -0.293700 1.157694 4.097658 -11.846459 -6.432208 -13.004547 47.302451 24.423781 -60.155703 26.882702 0.000000 0.000000 0.000000 -4.881391 3.104559 10.391301 1.977465 1.431642 -1.970285 -5.244137 2.679684 -27.217819 3.905784 -0.407876 4.441765 4.743340 0.207311 0.670501 0.000000 0.000000 0.000000 6.051051 14.386073 3.320055 -73.717143 -37.889285 2.768370 26.127228 -82.100412 -15.145384 -59.917797 34.860030 -11.006053 -68.240064 26.777508 -0.000000 0.000000 0.000000 0.000000 0.000000 0.000000 0.000000 -14.183928 -26.291276 -16.695617 90.353660 18.233977 31.826775 54.194146 -66.806711 0.784365 -1.241789 1.219545 0.397933 -1.294709 1.205748 -0.000000 0.000000 0.000000 0.000000 0.000000 0.000000 0.000000 
